<svg xmlns="http://www.w3.org/2000/svg" xmlns:xlink="http://www.w3.org/1999/xlink" xml:space="preserve" style="shape-rendering:geometricPrecision;text-rendering:geometricPrecision;image-rendering:optimizeQuality;" viewBox="0 0 8.33333 10.416662500000001" x="0px" y="0px" fill-rule="evenodd" clip-rule="evenodd"><defs><style type="text/css">
   
    .fil1 {fill:none}
    .fil0 {fill:black;fill-rule:nonzero}
   
  </style></defs><g><path class="fil0" d="M3.78225 4.89137l0.314642 0c0.0619094,0 0.112012,0.00845276 0.150307,0.0252087 0.0381299,0.0169134 0.0697244,0.0410039 0.0946142,0.072437 0.0248898,0.0315906 0.0429213,0.0681299 0.054248,0.109933 0.0111693,0.0418031 0.0167559,0.086 0.0167559,0.132752 0,0.0732362 -0.00829921,0.130035 -0.0250512,0.170402 -0.0165945,0.0403701 -0.0397283,0.0741969 -0.0694055,0.101319 -0.0295197,0.0272835 -0.0612717,0.0454724 -0.0952559,0.0545669 -0.0464331,0.0124449 -0.0885591,0.0186693 -0.126213,0.0186693l-0.314642 0 0 -0.685287zm0.211728 0.155244l0 0.374319 0.0518543 0c0.0443583,0 0.0757913,-0.0047874 0.0944567,-0.0146811 0.0186693,-0.00973228 0.0333504,-0.0269646 0.0440394,-0.051378 0.0105354,-0.0244094 0.0157992,-0.0641378 0.0157992,-0.119028 0,-0.0725945 -0.011811,-0.122217 -0.0354252,-0.149024 -0.0237717,-0.0268031 -0.0630236,-0.0402087 -0.117909,-0.0402087l-0.052815 0zm0.503402 0.187799c0,-0.11185 0.0312756,-0.198969 0.0935,-0.261193 0.0623858,-0.0623858 0.149185,-0.0935 0.260394,-0.0935 0.114083,0 0.201996,0.0306339 0.263744,0.0919055 0.0615906,0.0611063 0.0925433,0.146949 0.0925433,0.257201 0,0.0800984 -0.013563,0.145835 -0.0405276,0.197051 -0.0269646,0.0512165 -0.0658937,0.0911063 -0.116795,0.119665 -0.0510551,0.028563 -0.114398,0.0427598 -0.190508,0.0427598 -0.0772244,0 -0.141205,-0.0122835 -0.191945,-0.0368543 -0.0505787,-0.0247323 -0.0915827,-0.0636654 -0.123177,-0.116957 -0.0314291,-0.0532913 -0.0472283,-0.119984 -0.0472283,-0.200079zm0.21189 0.000956693c0,0.0692441 0.0127638,0.118866 0.0384528,0.149181 0.025689,0.0301575 0.0607913,0.045315 0.104988,0.045315 0.0454724,0 0.0807362,-0.0148386 0.105626,-0.0443543 0.0248898,-0.0296772 0.0374961,-0.082811 0.0374961,-0.159398 0,-0.0646181 -0.0130866,-0.111689 -0.0390906,-0.141524 -0.0260079,-0.0296772 -0.0612717,-0.0445157 -0.105945,-0.0445157 -0.0426024,0 -0.0769055,0.0149961 -0.102756,0.045311 -0.0258465,0.0301575 -0.0387717,0.0802559 -0.0387717,0.149984zm1.06855 0.0612677l0.185559 0.0561654c-0.0124449,0.0520118 -0.0320669,0.0954134 -0.058874,0.130354 -0.0268071,0.0349449 -0.0601535,0.0612717 -0.0998819,0.0789803 -0.0397283,0.0178701 -0.0903071,0.0266457 -0.151579,0.0266457 -0.0745118,0 -0.135465,-0.0108504 -0.182531,-0.0323898 -0.0472283,-0.0217008 -0.0880748,-0.0598346 -0.122382,-0.114402 -0.0341417,-0.0545669 -0.051374,-0.124291 -0.051374,-0.209335 0,-0.113445 0.0301535,-0.20072 0.0904646,-0.261512 0.060315,-0.0609488 0.145677,-0.0914252 0.255933,-0.0914252 0.0863189,0 0.15413,0.0173937 0.203591,0.0523346 0.0494646,0.0349409 0.0861614,0.0885512 0.110094,0.160831l-0.187 0.0416457c-0.00653937,-0.0209016 -0.0134016,-0.0362205 -0.0205827,-0.0459528 -0.0118071,-0.0161142 -0.0263268,-0.0285591 -0.0433976,-0.0373346 -0.0172323,-0.00877559 -0.036378,-0.0130866 -0.0575984,-0.0130866 -0.0478661,0 -0.0847283,0.0193071 -0.11026,0.0579213 -0.0193031,0.0287205 -0.0290354,0.0737126 -0.0290354,0.135142 0,0.0761063 0.0116457,0.128122 0.034622,0.156366 0.0231378,0.0282402 0.0555276,0.0422795 0.0971732,0.0422795 0.0405276,0 0.0711614,-0.0113268 0.0919016,-0.0341457 0.0207441,-0.0226535 0.0357402,-0.055685 0.0451575,-0.0990827zm0.241248 -0.405268l0.23311 0 0.121579 0.210772 0.117752 -0.210772 0.231035 0 -0.213165 0.331874 0.233272 0.353413 -0.237898 0 -0.135142 -0.220185 -0.135622 0.220185 -0.236461 0 0.236461 -0.357083 -0.214921 -0.328205z"/></g><path class="fil0" d="M3.76611 4.28167l2.91978 0c0.180004,0 0.343559,0.0735551 0.462055,0.192051 0.118496,0.118496 0.192051,0.282055 0.192051,0.462055l0 0.596945c0,0.180004 -0.0735551,0.343559 -0.192051,0.462055 -0.118496,0.118496 -0.282051,0.192051 -0.462055,0.192051l-2.91978 0c-0.180004,0 -0.343559,-0.0735551 -0.462055,-0.192051 -0.118496,-0.118496 -0.192051,-0.282051 -0.192051,-0.462055l0 -0.596945c0,-0.18 0.0735551,-0.343559 0.192051,-0.462055 0.118496,-0.118496 0.282051,-0.192051 0.462055,-0.192051zm2.91978 0.24l-2.91978 0c-0.113756,0 -0.21726,0.046626 -0.29237,0.121736 -0.0751102,0.0751102 -0.121736,0.178618 -0.121736,0.29237l0 0.596945c0,0.113756 0.046626,0.21726 0.121736,0.29237 0.0751102,0.0751102 0.178614,0.121736 0.29237,0.121736l2.91978 0c0.113756,0 0.21726,-0.046626 0.29237,-0.121736 0.0751102,-0.0751102 0.121736,-0.178614 0.121736,-0.29237l0 -0.596945c0,-0.113752 -0.046626,-0.21726 -0.121736,-0.29237 -0.0751102,-0.0751102 -0.178614,-0.121736 -0.29237,-0.121736z"/><g><path class="fil0" d="M6.15667 6.06682l0 0.283547c0,0.165933 -0.0678031,0.316709 -0.177028,0.425937 -0.109228,0.109224 -0.260004,0.177028 -0.425933,0.177028l-2.83141 0c-0.165933,0 -0.316705,-0.0678031 -0.425929,-0.177028 -0.109224,-0.109228 -0.177028,-0.260004 -0.177028,-0.425937l0 -4.36741c0,-0.165933 0.0678031,-0.316709 0.177028,-0.425937 0.109224,-0.109224 0.259996,-0.177028 0.425929,-0.177028l2.83141 0c0.165937,0 0.316709,0.0678031 0.425933,0.177028 0.109224,0.109228 0.177028,0.260004 0.177028,0.425937l0 2.4187 -0.24 0 0 -2.4187c0,-0.099689 -0.0408701,-0.190409 -0.106713,-0.256252 -0.0658386,-0.0658386 -0.156559,-0.106713 -0.256248,-0.106713l-2.83141 0c-0.099685,0 -0.190406,0.040874 -0.256244,0.106713 -0.0658425,0.0658425 -0.106713,0.156563 -0.106713,0.256252l0 4.36741c0,0.099689 0.0408701,0.190409 0.106713,0.256252 0.0658386,0.0658386 0.156559,0.106713 0.256244,0.106713l2.83141 0c0.099685,0 0.190406,-0.0408701 0.256248,-0.106713 0.0658425,-0.0658425 0.106713,-0.156563 0.106713,-0.256252l0 -0.283547 0.24 0z"/><path class="fil0" d="M6.15667 6.06682l0 0.283547c0,0.165933 -0.0678031,0.316709 -0.177028,0.425937 -0.109228,0.109224 -0.260004,0.177028 -0.425933,0.177028l-2.83141 0c-0.165933,0 -0.316705,-0.0678031 -0.425929,-0.177028 -0.109224,-0.109228 -0.177028,-0.260004 -0.177028,-0.425937l0 -4.36741c0,-0.165933 0.0678031,-0.316709 0.177028,-0.425937 0.109224,-0.109224 0.259996,-0.177028 0.425929,-0.177028l2.83141 0c0.165937,0 0.316709,0.0678031 0.425933,0.177028 0.109224,0.109228 0.177028,0.260004 0.177028,0.425937l0 2.4187 -0.24 0 0 -2.4187c0,-0.099689 -0.0408701,-0.190409 -0.106713,-0.256252 -0.0658386,-0.0658386 -0.156559,-0.106713 -0.256248,-0.106713l-2.83141 0c-0.099685,0 -0.190406,0.040874 -0.256244,0.106713 -0.0658425,0.0658425 -0.106713,0.156563 -0.106713,0.256252l0 4.36741c0,0.099689 0.0408701,0.190409 0.106713,0.256252 0.0658386,0.0658386 0.156559,0.106713 0.256244,0.106713l2.83141 0c0.099685,0 0.190406,-0.0408701 0.256248,-0.106713 0.0658425,-0.0658425 0.106713,-0.156563 0.106713,-0.256252l0 -0.283547 0.24 0z"/><path class="fil0" d="M3.02467 2.14c-0.0662717,0 -0.12,0.0537283 -0.12,0.12 0,0.0662717 0.0537283,0.12 0.12,0.12l2.22667 0c0.0662717,0 0.12,-0.0537283 0.12,-0.12 0,-0.0662717 -0.0537283,-0.12 -0.12,-0.12l-2.22667 0z"/><path class="fil0" d="M5.62952 6.88896c-0.369008,0.613843 -0.799283,0.439343 -1.34427,0.218311 -0.131098,-0.0531693 -0.269598,-0.109343 -0.409594,-0.154185l0.073126 -0.227811c0.154327,0.0494331 0.294134,0.106138 0.426469,0.159807 0.43915,0.178106 0.785862,0.318717 1.04896,-0.118933l0.205315 0.122811zm-3.38077 -0.250094l-0.0303858 -0.00588976c-0.163126,-0.0316063 -0.298339,-0.126839 -0.384748,-0.254791 -0.0863701,-0.127882 -0.124213,-0.288642 -0.0926772,-0.451382l0.379087 -1.95636 0.235315 0.045 -0.379087 1.95636c-0.0189961,0.0980276 0.00390945,0.195028 0.0561102,0.272319 0.0521496,0.0772205 0.133354,0.134622 0.231,0.153539l0.0303858 0.00588976 -0.045 0.235315zm0.40665 -5.20866c0.396236,-0.619413 0.788232,-0.450417 1.33019,-0.21678 0.129846,0.0559764 0.269421,0.116154 0.419445,0.167732l-0.077811 0.226874c-0.15822,-0.0543976 -0.302287,-0.116512 -0.436319,-0.174291 -0.433941,-0.187075 -0.747815,-0.322382 -1.03394,0.124906l-0.201559 -0.128441zm3.40225 0.270142c0.16313,0.0316063 0.298335,0.126839 0.384748,0.254791 0.0863622,0.127882 0.124209,0.288638 0.0926732,0.451382l-0.380756 1.96498 -0.235315 -0.045 0.380756 -1.96498c0.0189961,-0.0980276 -0.00390945,-0.195028 -0.0561063,-0.272319 -0.0521535,-0.0772205 -0.133354,-0.134622 -0.231,-0.153539l0.045 -0.235315z"/><path class="fil0" d="M3.02467 2.82044c-0.0662717,0 -0.12,0.0537283 -0.12,0.12 0,0.0662717 0.0537283,0.12 0.12,0.12l2.22667 0c0.0662717,0 0.12,-0.0537283 0.12,-0.12 0,-0.0662717 -0.0537283,-0.12 -0.12,-0.12l-2.22667 0z"/><path class="fil0" d="M3.02467 3.50087c-0.0662717,0 -0.12,0.0537283 -0.12,0.12 0,0.0662717 0.0537283,0.12 0.12,0.12l2.22667 0c0.0662717,0 0.12,-0.0537283 0.12,-0.12 0,-0.0662717 -0.0537283,-0.12 -0.12,-0.12l-2.22667 0z"/></g><rect class="fil1" width="8.33333" height="8.33333"/><text x="0" y="23.33333" fill="#000000" font-size="5px" font-weight="bold" font-family="'Helvetica Neue', Helvetica, Arial-Unicode, Arial, Sans-serif">Created by Grafix Point</text><text x="0" y="28.33333" fill="#000000" font-size="5px" font-weight="bold" font-family="'Helvetica Neue', Helvetica, Arial-Unicode, Arial, Sans-serif">from the Noun Project</text></svg>