<svg xmlns="http://www.w3.org/2000/svg" xmlns:xlink="http://www.w3.org/1999/xlink" xml:space="preserve" style="shape-rendering:geometricPrecision;text-rendering:geometricPrecision;image-rendering:optimizeQuality;" viewBox="0 0 8.33333 10.416662500000001" x="0px" y="0px" fill-rule="evenodd" clip-rule="evenodd"><defs><style type="text/css">
   
    .fil1 {fill:none}
    .fil0 {fill:black;fill-rule:nonzero}
   
  </style></defs><g><path class="fil0" d="M4.30773 4.77156l0.286354 0 0 0.502736c0,0.1055 -0.00947244,0.185807 -0.0282047,0.240925 -0.0187323,0.0551181 -0.0561969,0.101839 -0.112819,0.140161 -0.056626,0.0381102 -0.128969,0.0572717 -0.217244,0.0572717 -0.0934409,0 -0.165783,-0.0124882 -0.217028,-0.0378937 -0.0514567,-0.025189 -0.0910709,-0.0620079 -0.118846,-0.110665 -0.0279882,-0.0484449 -0.0445669,-0.108512 -0.0495197,-0.179996l0.273004 -0.037248c0.000433071,0.0406929 0.00409055,0.0710512 0.0107677,0.0908622 0.00667323,0.0198071 0.0180827,0.0357402 0.0340157,0.0477953 0.0109803,0.0081811 0.0264843,0.0120591 0.0467205,0.0120591 0.0318661,0 0.0553346,-0.0118425 0.0704055,-0.0355276 0.0148583,-0.0238976 0.0223937,-0.0639449 0.0223937,-0.120138l0 -0.570343zm0.475606 0l0.474965 0c0.103343,0 0.180854,0.0245433 0.232311,0.0738504 0.0514567,0.0490866 0.0772953,0.119276 0.0772953,0.209921 0,0.0934409 -0.0279882,0.166429 -0.084185,0.218965 -0.0561929,0.0525354 -0.141886,0.0787992 -0.257071,0.0787992l-0.156311 0 0 0.343197 -0.287004 0 0 -0.924732zm0.287004 0.39422l0.0699724 0c0.0551181,0 0.0936575,-0.00947244 0.116047,-0.0286339 0.0221772,-0.0191614 0.033374,-0.0437087 0.033374,-0.0734173 0,-0.0290669 -0.00968898,-0.0538268 -0.0290669,-0.0738504 -0.0191614,-0.0202402 -0.0555472,-0.0303583 -0.108945,-0.0303583l-0.0813819 0 0 0.20626zm1.11204 0.1955l0 -0.192268 0.441374 0 0 0.39422c-0.0843976,0.0574882 -0.15911,0.0968898 -0.22413,0.117559 -0.0650236,0.0208819 -0.142102,0.0312165 -0.231236,0.0312165 -0.109807,0 -0.199157,-0.0187323 -0.268272,-0.0561929 -0.0693268,-0.037248 -0.122937,-0.0930118 -0.160831,-0.167079 -0.0381102,-0.074063 -0.0572717,-0.158894 -0.0572717,-0.254705 0,-0.100976 0.0208858,-0.188819 0.062437,-0.263531 0.0417717,-0.0744961 0.102701,-0.131122 0.183012,-0.169874 0.0626535,-0.0299291 0.147051,-0.0447835 0.25298,-0.0447835 0.102055,0 0.178488,0.00925591 0.229299,0.0277717 0.0505984,0.0185197 0.0925827,0.0471535 0.126169,0.086122 0.033374,0.0387559 0.058563,0.0880591 0.0753583,0.147917l-0.275591 0.0490866c-0.0114134,-0.034878 -0.0307913,-0.0615748 -0.0579173,-0.0800906 -0.0269134,-0.0185197 -0.0615787,-0.0277756 -0.103563,-0.0277756 -0.0626535,0 -0.112602,0.0217441 -0.14985,0.0652362 -0.037248,0.0437087 -0.0559803,0.11239 -0.0559803,0.206693 0,0.100118 0.0189488,0.171598 0.056626,0.214445 0.0374646,0.0428425 0.0899961,0.064374 0.157386,0.064374 0.0318661,0 0.0624409,-0.00473622 0.0912913,-0.0139961 0.0290669,-0.00925591 0.062437,-0.0249724 0.099685,-0.0471496l0 -0.0871969 -0.190976 0z"/></g><path class="fil0" d="M3.76611 4.28167l2.91978 0c0.180004,0 0.343559,0.0735551 0.462055,0.192051 0.118496,0.118496 0.192051,0.282055 0.192051,0.462055l0 0.596945c0,0.180004 -0.0735551,0.343559 -0.192051,0.462055 -0.118496,0.118496 -0.282051,0.192051 -0.462055,0.192051l-2.91978 0c-0.180004,0 -0.343559,-0.0735551 -0.462055,-0.192051 -0.118496,-0.118496 -0.192051,-0.282051 -0.192051,-0.462055l0 -0.596945c0,-0.18 0.0735551,-0.343559 0.192051,-0.462055 0.118496,-0.118496 0.282051,-0.192051 0.462055,-0.192051zm2.91978 0.24l-2.91978 0c-0.113756,0 -0.21726,0.046626 -0.29237,0.121736 -0.0751102,0.0751102 -0.121736,0.178618 -0.121736,0.29237l0 0.596945c0,0.113756 0.046626,0.21726 0.121736,0.29237 0.0751102,0.0751102 0.178614,0.121736 0.29237,0.121736l2.91978 0c0.113756,0 0.21726,-0.046626 0.29237,-0.121736 0.0751102,-0.0751102 0.121736,-0.178614 0.121736,-0.29237l0 -0.596945c0,-0.113752 -0.046626,-0.21726 -0.121736,-0.29237 -0.0751102,-0.0751102 -0.178614,-0.121736 -0.29237,-0.121736z"/><g><path class="fil0" d="M6.15667 6.06682l0 0.283547c0,0.165933 -0.0678031,0.316709 -0.177028,0.425937 -0.109228,0.109224 -0.260004,0.177028 -0.425933,0.177028l-2.83141 0c-0.165933,0 -0.316705,-0.0678031 -0.425929,-0.177028 -0.109224,-0.109228 -0.177028,-0.260004 -0.177028,-0.425937l0 -4.36741c0,-0.165933 0.0678031,-0.316709 0.177028,-0.425937 0.109224,-0.109224 0.259996,-0.177028 0.425929,-0.177028l2.83141 0c0.165937,0 0.316709,0.0678031 0.425933,0.177028 0.109224,0.109228 0.177028,0.260004 0.177028,0.425937l0 2.4187 -0.24 0 0 -2.4187c0,-0.099689 -0.0408701,-0.190409 -0.106713,-0.256252 -0.0658386,-0.0658386 -0.156559,-0.106713 -0.256248,-0.106713l-2.83141 0c-0.099685,0 -0.190406,0.040874 -0.256244,0.106713 -0.0658425,0.0658425 -0.106713,0.156563 -0.106713,0.256252l0 4.36741c0,0.099689 0.0408701,0.190409 0.106713,0.256252 0.0658386,0.0658386 0.156559,0.106713 0.256244,0.106713l2.83141 0c0.099685,0 0.190406,-0.0408701 0.256248,-0.106713 0.0658425,-0.0658425 0.106713,-0.156563 0.106713,-0.256252l0 -0.283547 0.24 0z"/><path class="fil0" d="M6.15667 6.06682l0 0.283547c0,0.165933 -0.0678031,0.316709 -0.177028,0.425937 -0.109228,0.109224 -0.260004,0.177028 -0.425933,0.177028l-2.83141 0c-0.165933,0 -0.316705,-0.0678031 -0.425929,-0.177028 -0.109224,-0.109228 -0.177028,-0.260004 -0.177028,-0.425937l0 -4.36741c0,-0.165933 0.0678031,-0.316709 0.177028,-0.425937 0.109224,-0.109224 0.259996,-0.177028 0.425929,-0.177028l2.83141 0c0.165937,0 0.316709,0.0678031 0.425933,0.177028 0.109224,0.109228 0.177028,0.260004 0.177028,0.425937l0 2.4187 -0.24 0 0 -2.4187c0,-0.099689 -0.0408701,-0.190409 -0.106713,-0.256252 -0.0658386,-0.0658386 -0.156559,-0.106713 -0.256248,-0.106713l-2.83141 0c-0.099685,0 -0.190406,0.040874 -0.256244,0.106713 -0.0658425,0.0658425 -0.106713,0.156563 -0.106713,0.256252l0 4.36741c0,0.099689 0.0408701,0.190409 0.106713,0.256252 0.0658386,0.0658386 0.156559,0.106713 0.256244,0.106713l2.83141 0c0.099685,0 0.190406,-0.0408701 0.256248,-0.106713 0.0658425,-0.0658425 0.106713,-0.156563 0.106713,-0.256252l0 -0.283547 0.24 0z"/><path class="fil0" d="M3.02467 2.14c-0.0662717,0 -0.12,0.0537283 -0.12,0.12 0,0.0662717 0.0537283,0.12 0.12,0.12l2.22667 0c0.0662717,0 0.12,-0.0537283 0.12,-0.12 0,-0.0662717 -0.0537283,-0.12 -0.12,-0.12l-2.22667 0z"/><path class="fil0" d="M5.62952 6.88896c-0.369008,0.613843 -0.799283,0.439343 -1.34427,0.218311 -0.131098,-0.0531693 -0.269598,-0.109343 -0.409594,-0.154185l0.073126 -0.227811c0.154327,0.0494331 0.294134,0.106138 0.426469,0.159807 0.43915,0.178106 0.785862,0.318717 1.04896,-0.118933l0.205315 0.122811zm-3.38077 -0.250094l-0.0303858 -0.00588976c-0.163126,-0.0316063 -0.298339,-0.126839 -0.384748,-0.254791 -0.0863701,-0.127882 -0.124213,-0.288642 -0.0926772,-0.451382l0.379087 -1.95636 0.235315 0.045 -0.379087 1.95636c-0.0189961,0.0980276 0.00390945,0.195028 0.0561102,0.272319 0.0521496,0.0772205 0.133354,0.134622 0.231,0.153539l0.0303858 0.00588976 -0.045 0.235315zm0.40665 -5.20866c0.396236,-0.619413 0.788232,-0.450417 1.33019,-0.21678 0.129846,0.0559764 0.269421,0.116154 0.419445,0.167732l-0.077811 0.226874c-0.15822,-0.0543976 -0.302287,-0.116512 -0.436319,-0.174291 -0.433941,-0.187075 -0.747815,-0.322382 -1.03394,0.124906l-0.201559 -0.128441zm3.40225 0.270142c0.16313,0.0316063 0.298335,0.126839 0.384748,0.254791 0.0863622,0.127882 0.124209,0.288638 0.0926732,0.451382l-0.380756 1.96498 -0.235315 -0.045 0.380756 -1.96498c0.0189961,-0.0980276 -0.00390945,-0.195028 -0.0561063,-0.272319 -0.0521535,-0.0772205 -0.133354,-0.134622 -0.231,-0.153539l0.045 -0.235315z"/><path class="fil0" d="M3.02467 2.82044c-0.0662717,0 -0.12,0.0537283 -0.12,0.12 0,0.0662717 0.0537283,0.12 0.12,0.12l2.22667 0c0.0662717,0 0.12,-0.0537283 0.12,-0.12 0,-0.0662717 -0.0537283,-0.12 -0.12,-0.12l-2.22667 0z"/><path class="fil0" d="M3.02467 3.50087c-0.0662717,0 -0.12,0.0537283 -0.12,0.12 0,0.0662717 0.0537283,0.12 0.12,0.12l2.22667 0c0.0662717,0 0.12,-0.0537283 0.12,-0.12 0,-0.0662717 -0.0537283,-0.12 -0.12,-0.12l-2.22667 0z"/></g><rect class="fil1" width="8.33333" height="8.33333"/><text x="0" y="23.33333" fill="#000000" font-size="5px" font-weight="bold" font-family="'Helvetica Neue', Helvetica, Arial-Unicode, Arial, Sans-serif">Created by Grafix Point</text><text x="0" y="28.33333" fill="#000000" font-size="5px" font-weight="bold" font-family="'Helvetica Neue', Helvetica, Arial-Unicode, Arial, Sans-serif">from the Noun Project</text></svg>