<svg xmlns="http://www.w3.org/2000/svg" xmlns:xlink="http://www.w3.org/1999/xlink" xml:space="preserve" style="shape-rendering:geometricPrecision;text-rendering:geometricPrecision;image-rendering:optimizeQuality;" viewBox="0 0 8.33333 10.416662500000001" x="0px" y="0px" fill-rule="evenodd" clip-rule="evenodd"><defs><style type="text/css">
   
    .fil1 {fill:none}
    .fil0 {fill:black;fill-rule:nonzero}
   
  </style></defs><g><path class="fil0" d="M3.94935 4.77188l0.474965 0c0.103343,0 0.180854,0.0245433 0.232311,0.0738504 0.0514567,0.0490866 0.0772953,0.119276 0.0772953,0.209921 0,0.0934409 -0.0279882,0.166429 -0.084185,0.218965 -0.0561929,0.0525354 -0.141886,0.0787992 -0.257071,0.0787992l-0.156311 0 0 0.343197 -0.287004 0 0 -0.924732zm0.287004 0.39422l0.0699724 0c0.0551181,0 0.0936575,-0.00947244 0.116047,-0.0286339 0.0221772,-0.0191614 0.033374,-0.0437087 0.033374,-0.0734173 0,-0.0290669 -0.00968898,-0.0538268 -0.0290669,-0.0738504 -0.0191614,-0.0202402 -0.0555472,-0.0303583 -0.108945,-0.0303583l-0.0813819 0 0 0.20626zm0.650862 -0.39422l0.424583 0c0.0835354,0 0.151142,0.0114094 0.202815,0.0340197 0.0514567,0.0228189 0.0940866,0.0553307 0.127677,0.097748 0.0335866,0.0426299 0.0579134,0.0919331 0.0732008,0.148343 0.0150709,0.0564094 0.0226063,0.116051 0.0226063,0.179134 0,0.0988228 -0.0111929,0.175472 -0.0337992,0.229945 -0.0223937,0.0544724 -0.0536142,0.100118 -0.0936575,0.13672 -0.0398346,0.036815 -0.0826772,0.0613583 -0.128539,0.0736339 -0.0626535,0.0167913 -0.119492,0.025189 -0.170303,0.025189l-0.424583 0 0 -0.924732zm0.285709 0.209492l0 0.505102 0.0699764 0c0.0598543,0 0.102268,-0.00645669 0.127457,-0.0198071 0.0251929,-0.0131339 0.045,-0.0363858 0.0594252,-0.0693268 0.0142126,-0.0329449 0.021315,-0.0865551 0.021315,-0.160618 0,-0.0979646 -0.0159331,-0.164925 -0.0477953,-0.201094 -0.0320827,-0.0361732 -0.0850472,-0.0542559 -0.15911,-0.0542559l-0.0712677 0zm0.716535 -0.209492l0.70663 0 0 0.198724 -0.41963 0 0 0.16148 0.358268 0 0 0.186669 -0.358268 0 0 0.377858 -0.287 0 0 -0.924732z"/></g><path class="fil0" d="M3.76611 4.28167l2.91978 0c0.180004,0 0.343559,0.0735551 0.462055,0.192051 0.118496,0.118496 0.192051,0.282055 0.192051,0.462055l0 0.596945c0,0.180004 -0.0735551,0.343559 -0.192051,0.462055 -0.118496,0.118496 -0.282051,0.192051 -0.462055,0.192051l-2.91978 0c-0.180004,0 -0.343559,-0.0735551 -0.462055,-0.192051 -0.118496,-0.118496 -0.192051,-0.282051 -0.192051,-0.462055l0 -0.596945c0,-0.18 0.0735551,-0.343559 0.192051,-0.462055 0.118496,-0.118496 0.282051,-0.192051 0.462055,-0.192051zm2.91978 0.24l-2.91978 0c-0.113756,0 -0.21726,0.046626 -0.29237,0.121736 -0.0751102,0.0751102 -0.121736,0.178618 -0.121736,0.29237l0 0.596945c0,0.113756 0.046626,0.21726 0.121736,0.29237 0.0751102,0.0751102 0.178614,0.121736 0.29237,0.121736l2.91978 0c0.113756,0 0.21726,-0.046626 0.29237,-0.121736 0.0751102,-0.0751102 0.121736,-0.178614 0.121736,-0.29237l0 -0.596945c0,-0.113752 -0.046626,-0.21726 -0.121736,-0.29237 -0.0751102,-0.0751102 -0.178614,-0.121736 -0.29237,-0.121736z"/><g><path class="fil0" d="M6.15667 6.06682l0 0.283547c0,0.165933 -0.0678031,0.316709 -0.177028,0.425937 -0.109228,0.109224 -0.260004,0.177028 -0.425933,0.177028l-2.83141 0c-0.165933,0 -0.316705,-0.0678031 -0.425929,-0.177028 -0.109224,-0.109228 -0.177028,-0.260004 -0.177028,-0.425937l0 -4.36741c0,-0.165933 0.0678031,-0.316709 0.177028,-0.425937 0.109224,-0.109224 0.259996,-0.177028 0.425929,-0.177028l2.83141 0c0.165937,0 0.316709,0.0678031 0.425933,0.177028 0.109224,0.109228 0.177028,0.260004 0.177028,0.425937l0 2.4187 -0.24 0 0 -2.4187c0,-0.099689 -0.0408701,-0.190409 -0.106713,-0.256252 -0.0658386,-0.0658386 -0.156559,-0.106713 -0.256248,-0.106713l-2.83141 0c-0.099685,0 -0.190406,0.040874 -0.256244,0.106713 -0.0658425,0.0658425 -0.106713,0.156563 -0.106713,0.256252l0 4.36741c0,0.099689 0.0408701,0.190409 0.106713,0.256252 0.0658386,0.0658386 0.156559,0.106713 0.256244,0.106713l2.83141 0c0.099685,0 0.190406,-0.0408701 0.256248,-0.106713 0.0658425,-0.0658425 0.106713,-0.156563 0.106713,-0.256252l0 -0.283547 0.24 0z"/><path class="fil0" d="M6.15667 6.06682l0 0.283547c0,0.165933 -0.0678031,0.316709 -0.177028,0.425937 -0.109228,0.109224 -0.260004,0.177028 -0.425933,0.177028l-2.83141 0c-0.165933,0 -0.316705,-0.0678031 -0.425929,-0.177028 -0.109224,-0.109228 -0.177028,-0.260004 -0.177028,-0.425937l0 -4.36741c0,-0.165933 0.0678031,-0.316709 0.177028,-0.425937 0.109224,-0.109224 0.259996,-0.177028 0.425929,-0.177028l2.83141 0c0.165937,0 0.316709,0.0678031 0.425933,0.177028 0.109224,0.109228 0.177028,0.260004 0.177028,0.425937l0 2.4187 -0.24 0 0 -2.4187c0,-0.099689 -0.0408701,-0.190409 -0.106713,-0.256252 -0.0658386,-0.0658386 -0.156559,-0.106713 -0.256248,-0.106713l-2.83141 0c-0.099685,0 -0.190406,0.040874 -0.256244,0.106713 -0.0658425,0.0658425 -0.106713,0.156563 -0.106713,0.256252l0 4.36741c0,0.099689 0.0408701,0.190409 0.106713,0.256252 0.0658386,0.0658386 0.156559,0.106713 0.256244,0.106713l2.83141 0c0.099685,0 0.190406,-0.0408701 0.256248,-0.106713 0.0658425,-0.0658425 0.106713,-0.156563 0.106713,-0.256252l0 -0.283547 0.24 0z"/><path class="fil0" d="M3.02467 2.14c-0.0662717,0 -0.12,0.0537283 -0.12,0.12 0,0.0662717 0.0537283,0.12 0.12,0.12l2.22667 0c0.0662717,0 0.12,-0.0537283 0.12,-0.12 0,-0.0662717 -0.0537283,-0.12 -0.12,-0.12l-2.22667 0z"/><path class="fil0" d="M5.62952 6.88896c-0.369008,0.613843 -0.799283,0.439343 -1.34427,0.218311 -0.131098,-0.0531693 -0.269598,-0.109343 -0.409594,-0.154185l0.073126 -0.227811c0.154327,0.0494331 0.294134,0.106138 0.426469,0.159807 0.43915,0.178106 0.785862,0.318717 1.04896,-0.118933l0.205315 0.122811zm-3.38077 -0.250094l-0.0303858 -0.00588976c-0.163126,-0.0316063 -0.298339,-0.126839 -0.384748,-0.254791 -0.0863701,-0.127882 -0.124213,-0.288642 -0.0926772,-0.451382l0.379087 -1.95636 0.235315 0.045 -0.379087 1.95636c-0.0189961,0.0980276 0.00390945,0.195028 0.0561102,0.272319 0.0521496,0.0772205 0.133354,0.134622 0.231,0.153539l0.0303858 0.00588976 -0.045 0.235315zm0.40665 -5.20866c0.396236,-0.619413 0.788232,-0.450417 1.33019,-0.21678 0.129846,0.0559764 0.269421,0.116154 0.419445,0.167732l-0.077811 0.226874c-0.15822,-0.0543976 -0.302287,-0.116512 -0.436319,-0.174291 -0.433941,-0.187075 -0.747815,-0.322382 -1.03394,0.124906l-0.201559 -0.128441zm3.40225 0.270142c0.16313,0.0316063 0.298335,0.126839 0.384748,0.254791 0.0863622,0.127882 0.124209,0.288638 0.0926732,0.451382l-0.380756 1.96498 -0.235315 -0.045 0.380756 -1.96498c0.0189961,-0.0980276 -0.00390945,-0.195028 -0.0561063,-0.272319 -0.0521535,-0.0772205 -0.133354,-0.134622 -0.231,-0.153539l0.045 -0.235315z"/><path class="fil0" d="M3.02467 2.82044c-0.0662717,0 -0.12,0.0537283 -0.12,0.12 0,0.0662717 0.0537283,0.12 0.12,0.12l2.22667 0c0.0662717,0 0.12,-0.0537283 0.12,-0.12 0,-0.0662717 -0.0537283,-0.12 -0.12,-0.12l-2.22667 0z"/><path class="fil0" d="M3.02467 3.50087c-0.0662717,0 -0.12,0.0537283 -0.12,0.12 0,0.0662717 0.0537283,0.12 0.12,0.12l2.22667 0c0.0662717,0 0.12,-0.0537283 0.12,-0.12 0,-0.0662717 -0.0537283,-0.12 -0.12,-0.12l-2.22667 0z"/></g><rect class="fil1" width="8.33333" height="8.33333"/><text x="0" y="23.33333" fill="#000000" font-size="5px" font-weight="bold" font-family="'Helvetica Neue', Helvetica, Arial-Unicode, Arial, Sans-serif">Created by Grafix Point</text><text x="0" y="28.33333" fill="#000000" font-size="5px" font-weight="bold" font-family="'Helvetica Neue', Helvetica, Arial-Unicode, Arial, Sans-serif">from the Noun Project</text></svg>