<svg xmlns="http://www.w3.org/2000/svg" xmlns:xlink="http://www.w3.org/1999/xlink" xml:space="preserve" style="shape-rendering:geometricPrecision;text-rendering:geometricPrecision;image-rendering:optimizeQuality;" viewBox="0 0 8.33333 10.416662500000001" x="0px" y="0px" fill-rule="evenodd" clip-rule="evenodd"><defs><style type="text/css">
   
    .fil1 {fill:none}
    .fil0 {fill:black;fill-rule:nonzero}
   
  </style></defs><g><path class="fil0" d="M3.88185 4.77188l0.314559 0 0.164063 0.284417 0.158894 -0.284417 0.31176 0 -0.287646 0.447835 0.314776 0.476898 -0.32102 0 -0.182362 -0.297122 -0.183008 0.297122 -0.319083 0 0.319083 -0.48185 -0.290016 -0.442882zm1.06834 0l0.285925 0 0 0.696941 0.445894 0 0 0.227791 -0.731819 0 0 -0.924732zm0.811913 0.618783l0.271929 -0.0170079c0.00581496,0.0441378 0.0178701,0.0777244 0.0359567,0.100976 0.0292795,0.0374646 0.0714803,0.0559803 0.126169,0.0559803 0.0406929,0 0.072126,-0.00947244 0.0943031,-0.0286339 0.0219606,-0.0191654 0.0329409,-0.0413386 0.0329409,-0.0665315 0,-0.0238976 -0.0103346,-0.0454291 -0.031437,-0.064374 -0.0210984,-0.0189488 -0.0697559,-0.0368189 -0.146406,-0.0536102 -0.125307,-0.0282047 -0.214657,-0.0654528 -0.268055,-0.112173 -0.0538228,-0.0467244 -0.0807362,-0.106146 -0.0807362,-0.178488 0,-0.0475827 0.0137795,-0.0925827 0.0413386,-0.134783 0.0275591,-0.0421969 0.0688976,-0.0753543 0.124228,-0.099685 0.0553346,-0.0241142 0.131122,-0.0361693 0.227362,-0.0361693 0.118201,0 0.208413,0.0219606 0.270421,0.0658819 0.0620079,0.0439213 0.0988268,0.113898 0.110669,0.209709l-0.269346 0.0157165c-0.0071063,-0.0415551 -0.0221772,-0.0719134 -0.0452165,-0.0908583 -0.0228189,-0.0187323 -0.0544685,-0.0282047 -0.0947323,-0.0282047 -0.033374,0 -0.0583465,0.00688976 -0.0751417,0.0210984 -0.0167953,0.0139961 -0.025189,0.0312205 -0.025189,0.0514567 0,0.0146417 0.00688976,0.0277756 0.0206693,0.0396181 0.013563,0.0122717 0.0454291,0.0234685 0.0960236,0.0340157 0.124878,0.0269134 0.214228,0.0542598 0.268272,0.081815 0.0540394,0.0275591 0.0934409,0.0615787 0.117984,0.102488 0.0245472,0.0406929 0.0370354,0.0863346 0.0370354,0.136933 0,0.0592087 -0.0165787,0.113894 -0.0493071,0.163846 -0.0327244,0.0501654 -0.0785866,0.0880591 -0.137579,0.113894 -0.0587795,0.0258386 -0.133059,0.0387559 -0.222626,0.0387559 -0.157173,0 -0.266114,-0.0301417 -0.326614,-0.0908583 -0.0607165,-0.0605 -0.0949528,-0.137362 -0.102917,-0.230807z"/></g><path class="fil0" d="M3.76611 4.28167l2.91978 0c0.180004,0 0.343559,0.0735551 0.462055,0.192051 0.118496,0.118496 0.192051,0.282055 0.192051,0.462055l0 0.596945c0,0.180004 -0.0735551,0.343559 -0.192051,0.462055 -0.118496,0.118496 -0.282051,0.192051 -0.462055,0.192051l-2.91978 0c-0.180004,0 -0.343559,-0.0735551 -0.462055,-0.192051 -0.118496,-0.118496 -0.192051,-0.282051 -0.192051,-0.462055l0 -0.596945c0,-0.18 0.0735551,-0.343559 0.192051,-0.462055 0.118496,-0.118496 0.282051,-0.192051 0.462055,-0.192051zm2.91978 0.24l-2.91978 0c-0.113756,0 -0.21726,0.046626 -0.29237,0.121736 -0.0751102,0.0751102 -0.121736,0.178618 -0.121736,0.29237l0 0.596945c0,0.113756 0.046626,0.21726 0.121736,0.29237 0.0751102,0.0751102 0.178614,0.121736 0.29237,0.121736l2.91978 0c0.113756,0 0.21726,-0.046626 0.29237,-0.121736 0.0751102,-0.0751102 0.121736,-0.178614 0.121736,-0.29237l0 -0.596945c0,-0.113752 -0.046626,-0.21726 -0.121736,-0.29237 -0.0751102,-0.0751102 -0.178614,-0.121736 -0.29237,-0.121736z"/><g><path class="fil0" d="M6.15667 6.06682l0 0.283547c0,0.165933 -0.0678031,0.316709 -0.177028,0.425937 -0.109228,0.109224 -0.260004,0.177028 -0.425933,0.177028l-2.83141 0c-0.165933,0 -0.316705,-0.0678031 -0.425929,-0.177028 -0.109224,-0.109228 -0.177028,-0.260004 -0.177028,-0.425937l0 -4.36741c0,-0.165933 0.0678031,-0.316709 0.177028,-0.425937 0.109224,-0.109224 0.259996,-0.177028 0.425929,-0.177028l2.83141 0c0.165937,0 0.316709,0.0678031 0.425933,0.177028 0.109224,0.109228 0.177028,0.260004 0.177028,0.425937l0 2.4187 -0.24 0 0 -2.4187c0,-0.099689 -0.0408701,-0.190409 -0.106713,-0.256252 -0.0658386,-0.0658386 -0.156559,-0.106713 -0.256248,-0.106713l-2.83141 0c-0.099685,0 -0.190406,0.040874 -0.256244,0.106713 -0.0658425,0.0658425 -0.106713,0.156563 -0.106713,0.256252l0 4.36741c0,0.099689 0.0408701,0.190409 0.106713,0.256252 0.0658386,0.0658386 0.156559,0.106713 0.256244,0.106713l2.83141 0c0.099685,0 0.190406,-0.0408701 0.256248,-0.106713 0.0658425,-0.0658425 0.106713,-0.156563 0.106713,-0.256252l0 -0.283547 0.24 0z"/><path class="fil0" d="M6.15667 6.06682l0 0.283547c0,0.165933 -0.0678031,0.316709 -0.177028,0.425937 -0.109228,0.109224 -0.260004,0.177028 -0.425933,0.177028l-2.83141 0c-0.165933,0 -0.316705,-0.0678031 -0.425929,-0.177028 -0.109224,-0.109228 -0.177028,-0.260004 -0.177028,-0.425937l0 -4.36741c0,-0.165933 0.0678031,-0.316709 0.177028,-0.425937 0.109224,-0.109224 0.259996,-0.177028 0.425929,-0.177028l2.83141 0c0.165937,0 0.316709,0.0678031 0.425933,0.177028 0.109224,0.109228 0.177028,0.260004 0.177028,0.425937l0 2.4187 -0.24 0 0 -2.4187c0,-0.099689 -0.0408701,-0.190409 -0.106713,-0.256252 -0.0658386,-0.0658386 -0.156559,-0.106713 -0.256248,-0.106713l-2.83141 0c-0.099685,0 -0.190406,0.040874 -0.256244,0.106713 -0.0658425,0.0658425 -0.106713,0.156563 -0.106713,0.256252l0 4.36741c0,0.099689 0.0408701,0.190409 0.106713,0.256252 0.0658386,0.0658386 0.156559,0.106713 0.256244,0.106713l2.83141 0c0.099685,0 0.190406,-0.0408701 0.256248,-0.106713 0.0658425,-0.0658425 0.106713,-0.156563 0.106713,-0.256252l0 -0.283547 0.24 0z"/><path class="fil0" d="M3.02467 2.14c-0.0662717,0 -0.12,0.0537283 -0.12,0.12 0,0.0662717 0.0537283,0.12 0.12,0.12l2.22667 0c0.0662717,0 0.12,-0.0537283 0.12,-0.12 0,-0.0662717 -0.0537283,-0.12 -0.12,-0.12l-2.22667 0z"/><path class="fil0" d="M5.62952 6.88896c-0.369008,0.613843 -0.799283,0.439343 -1.34427,0.218311 -0.131098,-0.0531693 -0.269598,-0.109343 -0.409594,-0.154185l0.073126 -0.227811c0.154327,0.0494331 0.294134,0.106138 0.426469,0.159807 0.43915,0.178106 0.785862,0.318717 1.04896,-0.118933l0.205315 0.122811zm-3.38077 -0.250094l-0.0303858 -0.00588976c-0.163126,-0.0316063 -0.298339,-0.126839 -0.384748,-0.254791 -0.0863701,-0.127882 -0.124213,-0.288642 -0.0926772,-0.451382l0.379087 -1.95636 0.235315 0.045 -0.379087 1.95636c-0.0189961,0.0980276 0.00390945,0.195028 0.0561102,0.272319 0.0521496,0.0772205 0.133354,0.134622 0.231,0.153539l0.0303858 0.00588976 -0.045 0.235315zm0.40665 -5.20866c0.396236,-0.619413 0.788232,-0.450417 1.33019,-0.21678 0.129846,0.0559764 0.269421,0.116154 0.419445,0.167732l-0.077811 0.226874c-0.15822,-0.0543976 -0.302287,-0.116512 -0.436319,-0.174291 -0.433941,-0.187075 -0.747815,-0.322382 -1.03394,0.124906l-0.201559 -0.128441zm3.40225 0.270142c0.16313,0.0316063 0.298335,0.126839 0.384748,0.254791 0.0863622,0.127882 0.124209,0.288638 0.0926732,0.451382l-0.380756 1.96498 -0.235315 -0.045 0.380756 -1.96498c0.0189961,-0.0980276 -0.00390945,-0.195028 -0.0561063,-0.272319 -0.0521535,-0.0772205 -0.133354,-0.134622 -0.231,-0.153539l0.045 -0.235315z"/><path class="fil0" d="M3.02467 2.82044c-0.0662717,0 -0.12,0.0537283 -0.12,0.12 0,0.0662717 0.0537283,0.12 0.12,0.12l2.22667 0c0.0662717,0 0.12,-0.0537283 0.12,-0.12 0,-0.0662717 -0.0537283,-0.12 -0.12,-0.12l-2.22667 0z"/><path class="fil0" d="M3.02467 3.50087c-0.0662717,0 -0.12,0.0537283 -0.12,0.12 0,0.0662717 0.0537283,0.12 0.12,0.12l2.22667 0c0.0662717,0 0.12,-0.0537283 0.12,-0.12 0,-0.0662717 -0.0537283,-0.12 -0.12,-0.12l-2.22667 0z"/></g><rect class="fil1" width="8.33333" height="8.33333"/><text x="0" y="23.33333" fill="#000000" font-size="5px" font-weight="bold" font-family="'Helvetica Neue', Helvetica, Arial-Unicode, Arial, Sans-serif">Created by Grafix Point</text><text x="0" y="28.33333" fill="#000000" font-size="5px" font-weight="bold" font-family="'Helvetica Neue', Helvetica, Arial-Unicode, Arial, Sans-serif">from the Noun Project</text></svg>